<?xml version="1.0" encoding="utf-8" standalone="no"?>
<!DOCTYPE svg PUBLIC "-//W3C//DTD SVG 1.1//EN"
  "http://www.w3.org/Graphics/SVG/1.1/DTD/svg11.dtd">
<svg xmlns:xlink="http://www.w3.org/1999/xlink" width="499.781094pt" height="337.074375pt" viewBox="0 0 499.781094 337.074375" xmlns="http://www.w3.org/2000/svg" version="1.1">
 <metadata>
  <rdf:RDF xmlns:dc="http://purl.org/dc/elements/1.1/" xmlns:cc="http://creativecommons.org/ns#" xmlns:rdf="http://www.w3.org/1999/02/22-rdf-syntax-ns#">
   <cc:Work>
    <dc:type rdf:resource="http://purl.org/dc/dcmitype/StillImage"/>
    <dc:date>2026-01-12T12:03:55.656234</dc:date>
    <dc:format>image/svg+xml</dc:format>
    <dc:creator>
     <cc:Agent>
      <dc:title>Matplotlib v3.10.0, https://matplotlib.org/</dc:title>
     </cc:Agent>
    </dc:creator>
   </cc:Work>
  </rdf:RDF>
 </metadata>
 <defs>
  <style type="text/css">*{stroke-linejoin: round; stroke-linecap: butt}</style>
 </defs>
 <g id="figure_1">
  <g id="patch_1">
   <path d="M 0 337.074375 
L 499.781094 337.074375 
L 499.781094 0 
L 0 0 
z
" style="fill: #ffffff"/>
  </g>
  <g id="axes_1">
   <g id="patch_2">
    <path d="M 46.181094 299.518125 
L 492.581094 299.518125 
L 492.581094 22.318125 
L 46.181094 22.318125 
z
" style="fill: #ffffff"/>
   </g>
   <g id="matplotlib.axis_1">
    <g id="xtick_1">
     <g id="line2d_1">
      <path d="M 60.131094 299.518125 
L 60.131094 22.318125 
" clip-path="url(#pacd32a0acb)" style="fill: none; stroke: #b0b0b0; stroke-opacity: 0.3; stroke-width: 0.8; stroke-linecap: square"/>
     </g>
     <g id="line2d_2">
      <defs>
       <path id="m4c3db1ead2" d="M 0 0 
L 0 3.5 
" style="stroke: #000000; stroke-width: 0.8"/>
      </defs>
      <g>
       <use xlink:href="#m4c3db1ead2" x="60.131094" y="299.518125" style="stroke: #000000; stroke-width: 0.8"/>
      </g>
     </g>
     <g id="text_1">
      <!-- 0 -->
      <g transform="translate(57.267969 313.356719) scale(0.09 -0.09)">
       <defs>
        <path id="DejaVuSerif-30" d="M 2034 219 
Q 2513 219 2750 744 
Q 2988 1269 2988 2328 
Q 2988 3391 2750 3916 
Q 2513 4441 2034 4441 
Q 1556 4441 1318 3916 
Q 1081 3391 1081 2328 
Q 1081 1269 1318 744 
Q 1556 219 2034 219 
z
M 2034 -91 
Q 1275 -91 848 546 
Q 422 1184 422 2328 
Q 422 3475 848 4112 
Q 1275 4750 2034 4750 
Q 2797 4750 3222 4112 
Q 3647 3475 3647 2328 
Q 3647 1184 3222 546 
Q 2797 -91 2034 -91 
z
" transform="scale(0.015625)"/>
       </defs>
       <use xlink:href="#DejaVuSerif-30"/>
      </g>
     </g>
    </g>
    <g id="xtick_2">
     <g id="line2d_3">
      <path d="M 129.881094 299.518125 
L 129.881094 22.318125 
" clip-path="url(#pacd32a0acb)" style="fill: none; stroke: #b0b0b0; stroke-opacity: 0.3; stroke-width: 0.8; stroke-linecap: square"/>
     </g>
     <g id="line2d_4">
      <g>
       <use xlink:href="#m4c3db1ead2" x="129.881094" y="299.518125" style="stroke: #000000; stroke-width: 0.8"/>
      </g>
     </g>
     <g id="text_2">
      <!-- 5 -->
      <g transform="translate(127.017969 313.356719) scale(0.09 -0.09)">
       <defs>
        <path id="DejaVuSerif-35" d="M 3219 4666 
L 3219 4153 
L 1081 4153 
L 1081 2816 
Q 1244 2928 1461 2984 
Q 1678 3041 1947 3041 
Q 2703 3041 3140 2622 
Q 3578 2203 3578 1478 
Q 3578 738 3136 323 
Q 2694 -91 1894 -91 
Q 1572 -91 1234 -12 
Q 897 66 544 225 
L 544 1131 
L 897 1131 
Q 925 688 1179 453 
Q 1434 219 1894 219 
Q 2388 219 2653 544 
Q 2919 869 2919 1478 
Q 2919 2084 2655 2407 
Q 2391 2731 1894 2731 
Q 1613 2731 1398 2631 
Q 1184 2531 1019 2322 
L 750 2322 
L 750 4666 
L 3219 4666 
z
" transform="scale(0.015625)"/>
       </defs>
       <use xlink:href="#DejaVuSerif-35"/>
      </g>
     </g>
    </g>
    <g id="xtick_3">
     <g id="line2d_5">
      <path d="M 199.631094 299.518125 
L 199.631094 22.318125 
" clip-path="url(#pacd32a0acb)" style="fill: none; stroke: #b0b0b0; stroke-opacity: 0.3; stroke-width: 0.8; stroke-linecap: square"/>
     </g>
     <g id="line2d_6">
      <g>
       <use xlink:href="#m4c3db1ead2" x="199.631094" y="299.518125" style="stroke: #000000; stroke-width: 0.8"/>
      </g>
     </g>
     <g id="text_3">
      <!-- 10 -->
      <g transform="translate(193.904844 313.356719) scale(0.09 -0.09)">
       <defs>
        <path id="DejaVuSerif-31" d="M 909 0 
L 909 331 
L 1722 331 
L 1722 4213 
L 781 3603 
L 781 4013 
L 1919 4750 
L 2350 4750 
L 2350 331 
L 3163 331 
L 3163 0 
L 909 0 
z
" transform="scale(0.015625)"/>
       </defs>
       <use xlink:href="#DejaVuSerif-31"/>
       <use xlink:href="#DejaVuSerif-30" transform="translate(63.623047 0)"/>
      </g>
     </g>
    </g>
    <g id="xtick_4">
     <g id="line2d_7">
      <path d="M 269.381094 299.518125 
L 269.381094 22.318125 
" clip-path="url(#pacd32a0acb)" style="fill: none; stroke: #b0b0b0; stroke-opacity: 0.3; stroke-width: 0.8; stroke-linecap: square"/>
     </g>
     <g id="line2d_8">
      <g>
       <use xlink:href="#m4c3db1ead2" x="269.381094" y="299.518125" style="stroke: #000000; stroke-width: 0.8"/>
      </g>
     </g>
     <g id="text_4">
      <!-- 15 -->
      <g transform="translate(263.654844 313.356719) scale(0.09 -0.09)">
       <use xlink:href="#DejaVuSerif-31"/>
       <use xlink:href="#DejaVuSerif-35" transform="translate(63.623047 0)"/>
      </g>
     </g>
    </g>
    <g id="xtick_5">
     <g id="line2d_9">
      <path d="M 339.131094 299.518125 
L 339.131094 22.318125 
" clip-path="url(#pacd32a0acb)" style="fill: none; stroke: #b0b0b0; stroke-opacity: 0.3; stroke-width: 0.8; stroke-linecap: square"/>
     </g>
     <g id="line2d_10">
      <g>
       <use xlink:href="#m4c3db1ead2" x="339.131094" y="299.518125" style="stroke: #000000; stroke-width: 0.8"/>
      </g>
     </g>
     <g id="text_5">
      <!-- 20 -->
      <g transform="translate(333.404844 313.356719) scale(0.09 -0.09)">
       <defs>
        <path id="DejaVuSerif-32" d="M 819 3553 
L 469 3553 
L 469 4384 
Q 803 4563 1142 4656 
Q 1481 4750 1806 4750 
Q 2534 4750 2956 4397 
Q 3378 4044 3378 3438 
Q 3378 2753 2422 1800 
Q 2347 1728 2309 1691 
L 1131 513 
L 3078 513 
L 3078 1088 
L 3444 1088 
L 3444 0 
L 434 0 
L 434 341 
L 1850 1753 
Q 2319 2222 2519 2614 
Q 2719 3006 2719 3438 
Q 2719 3909 2473 4175 
Q 2228 4441 1797 4441 
Q 1350 4441 1106 4219 
Q 863 3997 819 3553 
z
" transform="scale(0.015625)"/>
       </defs>
       <use xlink:href="#DejaVuSerif-32"/>
       <use xlink:href="#DejaVuSerif-30" transform="translate(63.623047 0)"/>
      </g>
     </g>
    </g>
    <g id="xtick_6">
     <g id="line2d_11">
      <path d="M 408.881094 299.518125 
L 408.881094 22.318125 
" clip-path="url(#pacd32a0acb)" style="fill: none; stroke: #b0b0b0; stroke-opacity: 0.3; stroke-width: 0.8; stroke-linecap: square"/>
     </g>
     <g id="line2d_12">
      <g>
       <use xlink:href="#m4c3db1ead2" x="408.881094" y="299.518125" style="stroke: #000000; stroke-width: 0.8"/>
      </g>
     </g>
     <g id="text_6">
      <!-- 25 -->
      <g transform="translate(403.154844 313.356719) scale(0.09 -0.09)">
       <use xlink:href="#DejaVuSerif-32"/>
       <use xlink:href="#DejaVuSerif-35" transform="translate(63.623047 0)"/>
      </g>
     </g>
    </g>
    <g id="xtick_7">
     <g id="line2d_13">
      <path d="M 478.631094 299.518125 
L 478.631094 22.318125 
" clip-path="url(#pacd32a0acb)" style="fill: none; stroke: #b0b0b0; stroke-opacity: 0.3; stroke-width: 0.8; stroke-linecap: square"/>
     </g>
     <g id="line2d_14">
      <g>
       <use xlink:href="#m4c3db1ead2" x="478.631094" y="299.518125" style="stroke: #000000; stroke-width: 0.8"/>
      </g>
     </g>
     <g id="text_7">
      <!-- 30 -->
      <g transform="translate(472.904844 313.356719) scale(0.09 -0.09)">
       <defs>
        <path id="DejaVuSerif-33" d="M 622 4469 
Q 988 4606 1323 4678 
Q 1659 4750 1953 4750 
Q 2638 4750 3022 4454 
Q 3406 4159 3406 3634 
Q 3406 3213 3140 2930 
Q 2875 2647 2388 2547 
Q 2963 2466 3280 2130 
Q 3597 1794 3597 1259 
Q 3597 606 3158 257 
Q 2719 -91 1894 -91 
Q 1528 -91 1179 -12 
Q 831 66 488 225 
L 488 1131 
L 838 1131 
Q 869 681 1141 450 
Q 1413 219 1906 219 
Q 2384 219 2661 495 
Q 2938 772 2938 1253 
Q 2938 1803 2653 2086 
Q 2369 2369 1819 2369 
L 1522 2369 
L 1522 2688 
L 1678 2688 
Q 2225 2688 2498 2914 
Q 2772 3141 2772 3597 
Q 2772 4006 2547 4223 
Q 2322 4441 1900 4441 
Q 1478 4441 1245 4241 
Q 1013 4041 972 3647 
L 622 3647 
L 622 4469 
z
" transform="scale(0.015625)"/>
       </defs>
       <use xlink:href="#DejaVuSerif-33"/>
       <use xlink:href="#DejaVuSerif-30" transform="translate(63.623047 0)"/>
      </g>
     </g>
    </g>
    <g id="text_8">
     <!-- Node Churn Rate (%) -->
     <g transform="translate(209.245469 327.586719) scale(0.11 -0.11)">
      <defs>
       <path id="DejaVuSerif-4e" d="M 313 0 
L 313 331 
L 941 331 
L 941 4331 
L 313 4331 
L 313 4666 
L 1509 4666 
L 4306 984 
L 4306 4331 
L 3681 4331 
L 3681 4666 
L 5319 4666 
L 5319 4331 
L 4691 4331 
L 4691 -91 
L 4313 -91 
L 1325 3841 
L 1325 331 
L 1953 331 
L 1953 0 
L 313 0 
z
" transform="scale(0.015625)"/>
       <path id="DejaVuSerif-6f" d="M 1925 219 
Q 2388 219 2623 584 
Q 2859 950 2859 1663 
Q 2859 2375 2623 2739 
Q 2388 3103 1925 3103 
Q 1463 3103 1227 2739 
Q 991 2375 991 1663 
Q 991 950 1228 584 
Q 1466 219 1925 219 
z
M 1925 -91 
Q 1200 -91 759 389 
Q 319 869 319 1663 
Q 319 2456 758 2934 
Q 1197 3413 1925 3413 
Q 2653 3413 3092 2934 
Q 3531 2456 3531 1663 
Q 3531 869 3092 389 
Q 2653 -91 1925 -91 
z
" transform="scale(0.015625)"/>
       <path id="DejaVuSerif-64" d="M 3359 331 
L 3909 331 
L 3909 0 
L 2784 0 
L 2784 519 
Q 2616 206 2355 57 
Q 2094 -91 1709 -91 
Q 1097 -91 708 395 
Q 319 881 319 1663 
Q 319 2444 706 2928 
Q 1094 3413 1709 3413 
Q 2094 3413 2355 3264 
Q 2616 3116 2784 2803 
L 2784 4531 
L 2241 4531 
L 2241 4863 
L 3359 4863 
L 3359 331 
z
M 2784 1497 
L 2784 1825 
Q 2784 2422 2554 2737 
Q 2325 3053 1888 3053 
Q 1444 3053 1217 2703 
Q 991 2353 991 1663 
Q 991 975 1217 622 
Q 1444 269 1888 269 
Q 2325 269 2554 583 
Q 2784 897 2784 1497 
z
" transform="scale(0.015625)"/>
       <path id="DejaVuSerif-65" d="M 3469 1600 
L 991 1600 
L 991 1575 
Q 991 903 1244 561 
Q 1497 219 1991 219 
Q 2369 219 2611 417 
Q 2853 616 2950 1006 
L 3413 1006 
Q 3275 459 2904 184 
Q 2534 -91 1931 -91 
Q 1203 -91 761 389 
Q 319 869 319 1663 
Q 319 2450 753 2931 
Q 1188 3413 1894 3413 
Q 2647 3413 3050 2948 
Q 3453 2484 3469 1600 
z
M 2791 1931 
Q 2772 2513 2545 2808 
Q 2319 3103 1894 3103 
Q 1497 3103 1269 2806 
Q 1041 2509 991 1931 
L 2791 1931 
z
" transform="scale(0.015625)"/>
       <path id="DejaVuSerif-20" transform="scale(0.015625)"/>
       <path id="DejaVuSerif-43" d="M 4513 1234 
Q 4306 581 3820 245 
Q 3334 -91 2591 -91 
Q 2134 -91 1743 65 
Q 1353 222 1050 525 
Q 700 875 529 1320 
Q 359 1766 359 2328 
Q 359 3416 987 4083 
Q 1616 4750 2644 4750 
Q 3025 4750 3456 4650 
Q 3888 4550 4384 4347 
L 4384 3272 
L 4031 3272 
Q 3916 3859 3567 4137 
Q 3219 4416 2591 4416 
Q 1844 4416 1459 3886 
Q 1075 3356 1075 2328 
Q 1075 1303 1459 773 
Q 1844 244 2591 244 
Q 3113 244 3450 492 
Q 3788 741 3938 1234 
L 4513 1234 
z
" transform="scale(0.015625)"/>
       <path id="DejaVuSerif-68" d="M 263 0 
L 263 331 
L 781 331 
L 781 4531 
L 231 4531 
L 231 4863 
L 1356 4863 
L 1356 2731 
Q 1516 3069 1770 3241 
Q 2025 3413 2363 3413 
Q 2913 3413 3172 3097 
Q 3431 2781 3431 2113 
L 3431 331 
L 3944 331 
L 3944 0 
L 2356 0 
L 2356 331 
L 2853 331 
L 2853 1931 
Q 2853 2541 2704 2764 
Q 2556 2988 2175 2988 
Q 1775 2988 1565 2697 
Q 1356 2406 1356 1850 
L 1356 331 
L 1856 331 
L 1856 0 
L 263 0 
z
" transform="scale(0.015625)"/>
       <path id="DejaVuSerif-75" d="M 2266 3322 
L 3341 3322 
L 3341 331 
L 3884 331 
L 3884 0 
L 2766 0 
L 2766 588 
Q 2606 256 2353 82 
Q 2100 -91 1766 -91 
Q 1213 -91 952 223 
Q 691 538 691 1209 
L 691 2988 
L 172 2988 
L 172 3322 
L 1269 3322 
L 1269 1388 
Q 1269 781 1417 556 
Q 1566 331 1947 331 
Q 2347 331 2556 625 
Q 2766 919 2766 1478 
L 2766 2988 
L 2266 2988 
L 2266 3322 
z
" transform="scale(0.015625)"/>
       <path id="DejaVuSerif-72" d="M 3059 3328 
L 3059 2497 
L 2728 2497 
Q 2713 2744 2591 2866 
Q 2469 2988 2234 2988 
Q 1809 2988 1582 2694 
Q 1356 2400 1356 1850 
L 1356 331 
L 2022 331 
L 2022 0 
L 263 0 
L 263 331 
L 781 331 
L 781 2994 
L 231 2994 
L 231 3322 
L 1356 3322 
L 1356 2731 
Q 1525 3078 1790 3245 
Q 2056 3413 2438 3413 
Q 2578 3413 2733 3391 
Q 2888 3369 3059 3328 
z
" transform="scale(0.015625)"/>
       <path id="DejaVuSerif-6e" d="M 263 0 
L 263 331 
L 781 331 
L 781 2988 
L 231 2988 
L 231 3322 
L 1356 3322 
L 1356 2731 
Q 1516 3069 1770 3241 
Q 2025 3413 2363 3413 
Q 2913 3413 3172 3097 
Q 3431 2781 3431 2113 
L 3431 331 
L 3944 331 
L 3944 0 
L 2356 0 
L 2356 331 
L 2853 331 
L 2853 1931 
Q 2853 2541 2703 2767 
Q 2553 2994 2175 2994 
Q 1775 2994 1565 2701 
Q 1356 2409 1356 1850 
L 1356 331 
L 1856 331 
L 1856 0 
L 263 0 
z
" transform="scale(0.015625)"/>
       <path id="DejaVuSerif-52" d="M 3066 2316 
Q 3284 2256 3442 2114 
Q 3600 1972 3725 1716 
L 4403 331 
L 4972 331 
L 4972 0 
L 3872 0 
L 3144 1484 
Q 2934 1916 2759 2042 
Q 2584 2169 2278 2169 
L 1581 2169 
L 1581 331 
L 2241 331 
L 2241 0 
L 353 0 
L 353 331 
L 947 331 
L 947 4331 
L 353 4331 
L 353 4666 
L 2719 4666 
Q 3400 4666 3770 4341 
Q 4141 4016 4141 3419 
Q 4141 2938 3870 2661 
Q 3600 2384 3066 2316 
z
M 1581 2503 
L 2503 2503 
Q 2975 2503 3200 2726 
Q 3425 2950 3425 3419 
Q 3425 3888 3200 4109 
Q 2975 4331 2503 4331 
L 1581 4331 
L 1581 2503 
z
" transform="scale(0.015625)"/>
       <path id="DejaVuSerif-61" d="M 2547 1044 
L 2547 1747 
L 1806 1747 
Q 1378 1747 1168 1562 
Q 959 1378 959 997 
Q 959 650 1171 447 
Q 1384 244 1747 244 
Q 2106 244 2326 466 
Q 2547 688 2547 1044 
z
M 3122 2075 
L 3122 331 
L 3634 331 
L 3634 0 
L 2547 0 
L 2547 359 
Q 2356 128 2106 18 
Q 1856 -91 1522 -91 
Q 969 -91 644 203 
Q 319 497 319 997 
Q 319 1513 691 1797 
Q 1063 2081 1741 2081 
L 2547 2081 
L 2547 2309 
Q 2547 2688 2317 2895 
Q 2088 3103 1672 3103 
Q 1328 3103 1125 2947 
Q 922 2791 872 2484 
L 575 2484 
L 575 3156 
Q 875 3284 1158 3348 
Q 1441 3413 1709 3413 
Q 2400 3413 2761 3070 
Q 3122 2728 3122 2075 
z
" transform="scale(0.015625)"/>
       <path id="DejaVuSerif-74" d="M 691 2988 
L 184 2988 
L 184 3322 
L 691 3322 
L 691 4353 
L 1269 4353 
L 1269 3322 
L 2350 3322 
L 2350 2988 
L 1269 2988 
L 1269 878 
Q 1269 456 1350 337 
Q 1431 219 1650 219 
Q 1875 219 1978 351 
Q 2081 484 2088 781 
L 2522 781 
Q 2497 328 2275 118 
Q 2053 -91 1600 -91 
Q 1103 -91 897 129 
Q 691 350 691 878 
L 691 2988 
z
" transform="scale(0.015625)"/>
       <path id="DejaVuSerif-28" d="M 2041 -997 
Q 1281 -656 893 83 
Q 506 822 506 1931 
Q 506 3044 893 3783 
Q 1281 4522 2041 4863 
L 2041 4556 
Q 1559 4225 1350 3623 
Q 1141 3022 1141 1931 
Q 1141 844 1350 242 
Q 1559 -359 2041 -691 
L 2041 -997 
z
" transform="scale(0.015625)"/>
       <path id="DejaVuSerif-25" d="M 1434 4459 
Q 1159 4459 1004 4200 
Q 850 3941 850 3475 
Q 850 3016 1008 2753 
Q 1166 2491 1434 2491 
Q 1700 2491 1854 2752 
Q 2009 3013 2009 3475 
Q 2009 3938 1854 4198 
Q 1700 4459 1434 4459 
z
M 4653 2169 
Q 4381 2169 4226 1906 
Q 4072 1644 4072 1178 
Q 4072 719 4228 458 
Q 4384 197 4653 197 
Q 4922 197 5075 458 
Q 5228 719 5228 1178 
Q 5228 1641 5073 1905 
Q 4919 2169 4653 2169 
z
M 4653 2450 
Q 5147 2450 5437 2106 
Q 5728 1763 5728 1178 
Q 5728 594 5436 251 
Q 5144 -91 4653 -91 
Q 4153 -91 3862 251 
Q 3572 594 3572 1178 
Q 3572 1766 3864 2108 
Q 4156 2450 4653 2450 
z
M 4263 4750 
L 4738 4750 
L 1819 -91 
L 1344 -91 
L 4263 4750 
z
M 1428 4750 
Q 1922 4750 2215 4408 
Q 2509 4066 2509 3481 
Q 2509 2891 2217 2550 
Q 1925 2209 1428 2209 
Q 931 2209 642 2551 
Q 353 2894 353 3481 
Q 353 4063 643 4406 
Q 934 4750 1428 4750 
z
" transform="scale(0.015625)"/>
       <path id="DejaVuSerif-29" d="M 453 -997 
L 453 -691 
Q 934 -359 1145 242 
Q 1356 844 1356 1931 
Q 1356 3022 1145 3623 
Q 934 4225 453 4556 
L 453 4863 
Q 1216 4522 1603 3783 
Q 1991 3044 1991 1931 
Q 1991 822 1603 83 
Q 1216 -656 453 -997 
z
" transform="scale(0.015625)"/>
      </defs>
      <use xlink:href="#DejaVuSerif-4e"/>
      <use xlink:href="#DejaVuSerif-6f" transform="translate(87.5 0)"/>
      <use xlink:href="#DejaVuSerif-64" transform="translate(147.705078 0)"/>
      <use xlink:href="#DejaVuSerif-65" transform="translate(211.71875 0)"/>
      <use xlink:href="#DejaVuSerif-20" transform="translate(270.898438 0)"/>
      <use xlink:href="#DejaVuSerif-43" transform="translate(302.685547 0)"/>
      <use xlink:href="#DejaVuSerif-68" transform="translate(379.199219 0)"/>
      <use xlink:href="#DejaVuSerif-75" transform="translate(443.603516 0)"/>
      <use xlink:href="#DejaVuSerif-72" transform="translate(508.007812 0)"/>
      <use xlink:href="#DejaVuSerif-6e" transform="translate(555.810547 0)"/>
      <use xlink:href="#DejaVuSerif-20" transform="translate(620.214844 0)"/>
      <use xlink:href="#DejaVuSerif-52" transform="translate(652.001953 0)"/>
      <use xlink:href="#DejaVuSerif-61" transform="translate(729.544922 0)"/>
      <use xlink:href="#DejaVuSerif-74" transform="translate(789.164062 0)"/>
      <use xlink:href="#DejaVuSerif-65" transform="translate(829.349609 0)"/>
      <use xlink:href="#DejaVuSerif-20" transform="translate(888.529297 0)"/>
      <use xlink:href="#DejaVuSerif-28" transform="translate(920.316406 0)"/>
      <use xlink:href="#DejaVuSerif-25" transform="translate(959.330078 0)"/>
      <use xlink:href="#DejaVuSerif-29" transform="translate(1054.349609 0)"/>
     </g>
    </g>
   </g>
   <g id="matplotlib.axis_2">
    <g id="ytick_1">
     <g id="line2d_15">
      <path d="M 46.181094 291.534323 
L 492.581094 291.534323 
" clip-path="url(#pacd32a0acb)" style="fill: none; stroke: #b0b0b0; stroke-opacity: 0.3; stroke-width: 0.8; stroke-linecap: square"/>
     </g>
     <g id="line2d_16">
      <defs>
       <path id="m4eb774f836" d="M 0 0 
L -3.5 0 
" style="stroke: #000000; stroke-width: 0.8"/>
      </defs>
      <g>
       <use xlink:href="#m4eb774f836" x="46.181094" y="291.534323" style="stroke: #000000; stroke-width: 0.8"/>
      </g>
     </g>
     <g id="text_9">
      <!-- 30 -->
      <g transform="translate(27.728594 294.95362) scale(0.09 -0.09)">
       <use xlink:href="#DejaVuSerif-33"/>
       <use xlink:href="#DejaVuSerif-30" transform="translate(63.623047 0)"/>
      </g>
     </g>
    </g>
    <g id="ytick_2">
     <g id="line2d_17">
      <path d="M 46.181094 255.247253 
L 492.581094 255.247253 
" clip-path="url(#pacd32a0acb)" style="fill: none; stroke: #b0b0b0; stroke-opacity: 0.3; stroke-width: 0.8; stroke-linecap: square"/>
     </g>
     <g id="line2d_18">
      <g>
       <use xlink:href="#m4eb774f836" x="46.181094" y="255.247253" style="stroke: #000000; stroke-width: 0.8"/>
      </g>
     </g>
     <g id="text_10">
      <!-- 40 -->
      <g transform="translate(27.728594 258.66655) scale(0.09 -0.09)">
       <defs>
        <path id="DejaVuSerif-34" d="M 2234 1581 
L 2234 4063 
L 641 1581 
L 2234 1581 
z
M 3609 0 
L 1484 0 
L 1484 331 
L 2234 331 
L 2234 1247 
L 197 1247 
L 197 1588 
L 2241 4750 
L 2859 4750 
L 2859 1581 
L 3750 1581 
L 3750 1247 
L 2859 1247 
L 2859 331 
L 3609 331 
L 3609 0 
z
" transform="scale(0.015625)"/>
       </defs>
       <use xlink:href="#DejaVuSerif-34"/>
       <use xlink:href="#DejaVuSerif-30" transform="translate(63.623047 0)"/>
      </g>
     </g>
    </g>
    <g id="ytick_3">
     <g id="line2d_19">
      <path d="M 46.181094 218.960184 
L 492.581094 218.960184 
" clip-path="url(#pacd32a0acb)" style="fill: none; stroke: #b0b0b0; stroke-opacity: 0.3; stroke-width: 0.8; stroke-linecap: square"/>
     </g>
     <g id="line2d_20">
      <g>
       <use xlink:href="#m4eb774f836" x="46.181094" y="218.960184" style="stroke: #000000; stroke-width: 0.8"/>
      </g>
     </g>
     <g id="text_11">
      <!-- 50 -->
      <g transform="translate(27.728594 222.37948) scale(0.09 -0.09)">
       <use xlink:href="#DejaVuSerif-35"/>
       <use xlink:href="#DejaVuSerif-30" transform="translate(63.623047 0)"/>
      </g>
     </g>
    </g>
    <g id="ytick_4">
     <g id="line2d_21">
      <path d="M 46.181094 182.673114 
L 492.581094 182.673114 
" clip-path="url(#pacd32a0acb)" style="fill: none; stroke: #b0b0b0; stroke-opacity: 0.3; stroke-width: 0.8; stroke-linecap: square"/>
     </g>
     <g id="line2d_22">
      <g>
       <use xlink:href="#m4eb774f836" x="46.181094" y="182.673114" style="stroke: #000000; stroke-width: 0.8"/>
      </g>
     </g>
     <g id="text_12">
      <!-- 60 -->
      <g transform="translate(27.728594 186.092411) scale(0.09 -0.09)">
       <defs>
        <path id="DejaVuSerif-36" d="M 2094 219 
Q 2534 219 2771 542 
Q 3009 866 3009 1472 
Q 3009 2078 2771 2401 
Q 2534 2725 2094 2725 
Q 1647 2725 1412 2412 
Q 1178 2100 1178 1509 
Q 1178 888 1415 553 
Q 1653 219 2094 219 
z
M 1075 2569 
Q 1288 2803 1556 2918 
Q 1825 3034 2163 3034 
Q 2859 3034 3264 2615 
Q 3669 2197 3669 1472 
Q 3669 763 3233 336 
Q 2797 -91 2069 -91 
Q 1278 -91 853 498 
Q 428 1088 428 2181 
Q 428 3406 931 4078 
Q 1434 4750 2350 4750 
Q 2597 4750 2869 4703 
Q 3141 4656 3425 4563 
L 3425 3794 
L 3072 3794 
Q 3034 4109 2831 4275 
Q 2628 4441 2284 4441 
Q 1678 4441 1381 3981 
Q 1084 3522 1075 2569 
z
" transform="scale(0.015625)"/>
       </defs>
       <use xlink:href="#DejaVuSerif-36"/>
       <use xlink:href="#DejaVuSerif-30" transform="translate(63.623047 0)"/>
      </g>
     </g>
    </g>
    <g id="ytick_5">
     <g id="line2d_23">
      <path d="M 46.181094 146.386044 
L 492.581094 146.386044 
" clip-path="url(#pacd32a0acb)" style="fill: none; stroke: #b0b0b0; stroke-opacity: 0.3; stroke-width: 0.8; stroke-linecap: square"/>
     </g>
     <g id="line2d_24">
      <g>
       <use xlink:href="#m4eb774f836" x="46.181094" y="146.386044" style="stroke: #000000; stroke-width: 0.8"/>
      </g>
     </g>
     <g id="text_13">
      <!-- 70 -->
      <g transform="translate(27.728594 149.805341) scale(0.09 -0.09)">
       <defs>
        <path id="DejaVuSerif-37" d="M 3609 4347 
L 1784 0 
L 1319 0 
L 3059 4153 
L 903 4153 
L 903 3578 
L 538 3578 
L 538 4666 
L 3609 4666 
L 3609 4347 
z
" transform="scale(0.015625)"/>
       </defs>
       <use xlink:href="#DejaVuSerif-37"/>
       <use xlink:href="#DejaVuSerif-30" transform="translate(63.623047 0)"/>
      </g>
     </g>
    </g>
    <g id="ytick_6">
     <g id="line2d_25">
      <path d="M 46.181094 110.098975 
L 492.581094 110.098975 
" clip-path="url(#pacd32a0acb)" style="fill: none; stroke: #b0b0b0; stroke-opacity: 0.3; stroke-width: 0.8; stroke-linecap: square"/>
     </g>
     <g id="line2d_26">
      <g>
       <use xlink:href="#m4eb774f836" x="46.181094" y="110.098975" style="stroke: #000000; stroke-width: 0.8"/>
      </g>
     </g>
     <g id="text_14">
      <!-- 80 -->
      <g transform="translate(27.728594 113.518271) scale(0.09 -0.09)">
       <defs>
        <path id="DejaVuSerif-38" d="M 2981 1275 
Q 2981 1775 2732 2051 
Q 2484 2328 2034 2328 
Q 1584 2328 1336 2051 
Q 1088 1775 1088 1275 
Q 1088 772 1336 495 
Q 1584 219 2034 219 
Q 2484 219 2732 495 
Q 2981 772 2981 1275 
z
M 2853 3541 
Q 2853 3966 2637 4203 
Q 2422 4441 2034 4441 
Q 1650 4441 1433 4203 
Q 1216 3966 1216 3541 
Q 1216 3113 1433 2875 
Q 1650 2638 2034 2638 
Q 2422 2638 2637 2875 
Q 2853 3113 2853 3541 
z
M 2516 2484 
Q 3047 2413 3344 2092 
Q 3641 1772 3641 1275 
Q 3641 619 3225 264 
Q 2809 -91 2034 -91 
Q 1263 -91 845 264 
Q 428 619 428 1275 
Q 428 1772 725 2092 
Q 1022 2413 1556 2484 
Q 1084 2569 832 2842 
Q 581 3116 581 3541 
Q 581 4103 968 4426 
Q 1356 4750 2034 4750 
Q 2713 4750 3100 4426 
Q 3488 4103 3488 3541 
Q 3488 3116 3236 2842 
Q 2984 2569 2516 2484 
z
" transform="scale(0.015625)"/>
       </defs>
       <use xlink:href="#DejaVuSerif-38"/>
       <use xlink:href="#DejaVuSerif-30" transform="translate(63.623047 0)"/>
      </g>
     </g>
    </g>
    <g id="ytick_7">
     <g id="line2d_27">
      <path d="M 46.181094 73.811905 
L 492.581094 73.811905 
" clip-path="url(#pacd32a0acb)" style="fill: none; stroke: #b0b0b0; stroke-opacity: 0.3; stroke-width: 0.8; stroke-linecap: square"/>
     </g>
     <g id="line2d_28">
      <g>
       <use xlink:href="#m4eb774f836" x="46.181094" y="73.811905" style="stroke: #000000; stroke-width: 0.8"/>
      </g>
     </g>
     <g id="text_15">
      <!-- 90 -->
      <g transform="translate(27.728594 77.231202) scale(0.09 -0.09)">
       <defs>
        <path id="DejaVuSerif-39" d="M 2994 2091 
Q 2784 1856 2512 1740 
Q 2241 1625 1900 1625 
Q 1206 1625 804 2044 
Q 403 2463 403 3188 
Q 403 3897 839 4323 
Q 1275 4750 2003 4750 
Q 2794 4750 3217 4161 
Q 3641 3572 3641 2478 
Q 3641 1253 3137 581 
Q 2634 -91 1722 -91 
Q 1475 -91 1203 -44 
Q 931 3 647 97 
L 647 872 
L 997 872 
Q 1038 556 1241 387 
Q 1444 219 1784 219 
Q 2391 219 2687 676 
Q 2984 1134 2994 2091 
z
M 1978 4441 
Q 1534 4441 1298 4117 
Q 1063 3794 1063 3188 
Q 1063 2581 1298 2256 
Q 1534 1931 1978 1931 
Q 2422 1931 2658 2245 
Q 2894 2559 2894 3150 
Q 2894 3772 2656 4106 
Q 2419 4441 1978 4441 
z
" transform="scale(0.015625)"/>
       </defs>
       <use xlink:href="#DejaVuSerif-39"/>
       <use xlink:href="#DejaVuSerif-30" transform="translate(63.623047 0)"/>
      </g>
     </g>
    </g>
    <g id="ytick_8">
     <g id="line2d_29">
      <path d="M 46.181094 37.524835 
L 492.581094 37.524835 
" clip-path="url(#pacd32a0acb)" style="fill: none; stroke: #b0b0b0; stroke-opacity: 0.3; stroke-width: 0.8; stroke-linecap: square"/>
     </g>
     <g id="line2d_30">
      <g>
       <use xlink:href="#m4eb774f836" x="46.181094" y="37.524835" style="stroke: #000000; stroke-width: 0.8"/>
      </g>
     </g>
     <g id="text_16">
      <!-- 100 -->
      <g transform="translate(22.002344 40.944132) scale(0.09 -0.09)">
       <use xlink:href="#DejaVuSerif-31"/>
       <use xlink:href="#DejaVuSerif-30" transform="translate(63.623047 0)"/>
       <use xlink:href="#DejaVuSerif-30" transform="translate(127.246094 0)"/>
      </g>
     </g>
    </g>
    <g id="text_17">
     <!-- Total Energy Consumption (mJ) -->
     <g transform="translate(15.558281 248.7325) rotate(-90) scale(0.11 -0.11)">
      <defs>
       <path id="DejaVuSerif-54" d="M 1222 0 
L 1222 331 
L 1819 331 
L 1819 4294 
L 447 4294 
L 447 3566 
L 63 3566 
L 63 4666 
L 4206 4666 
L 4206 3566 
L 3822 3566 
L 3822 4294 
L 2450 4294 
L 2450 331 
L 3047 331 
L 3047 0 
L 1222 0 
z
" transform="scale(0.015625)"/>
       <path id="DejaVuSerif-6c" d="M 1313 331 
L 1856 331 
L 1856 0 
L 184 0 
L 184 331 
L 738 331 
L 738 4531 
L 184 4531 
L 184 4863 
L 1313 4863 
L 1313 331 
z
" transform="scale(0.015625)"/>
       <path id="DejaVuSerif-45" d="M 353 0 
L 353 331 
L 947 331 
L 947 4331 
L 353 4331 
L 353 4666 
L 4109 4666 
L 4109 3628 
L 3725 3628 
L 3725 4281 
L 1581 4281 
L 1581 2719 
L 3109 2719 
L 3109 3303 
L 3494 3303 
L 3494 1753 
L 3109 1753 
L 3109 2338 
L 1581 2338 
L 1581 384 
L 3775 384 
L 3775 1038 
L 4159 1038 
L 4159 0 
L 353 0 
z
" transform="scale(0.015625)"/>
       <path id="DejaVuSerif-67" d="M 3359 2988 
L 3359 72 
Q 3359 -644 2965 -1033 
Q 2572 -1422 1844 -1422 
Q 1516 -1422 1216 -1362 
Q 916 -1303 641 -1184 
L 641 -488 
L 941 -488 
Q 997 -813 1206 -963 
Q 1416 -1113 1806 -1113 
Q 2313 -1113 2548 -827 
Q 2784 -541 2784 72 
L 2784 519 
Q 2616 206 2355 57 
Q 2094 -91 1709 -91 
Q 1097 -91 708 395 
Q 319 881 319 1663 
Q 319 2444 706 2928 
Q 1094 3413 1709 3413 
Q 2094 3413 2355 3264 
Q 2616 3116 2784 2803 
L 2784 3322 
L 3909 3322 
L 3909 2988 
L 3359 2988 
z
M 2784 1825 
Q 2784 2422 2554 2737 
Q 2325 3053 1888 3053 
Q 1444 3053 1217 2703 
Q 991 2353 991 1663 
Q 991 975 1217 622 
Q 1444 269 1888 269 
Q 2325 269 2554 583 
Q 2784 897 2784 1497 
L 2784 1825 
z
" transform="scale(0.015625)"/>
       <path id="DejaVuSerif-79" d="M 1381 -609 
L 1600 -56 
L 359 2988 
L -19 2988 
L -19 3322 
L 1509 3322 
L 1509 2988 
L 978 2988 
L 1913 703 
L 2847 2988 
L 2350 2988 
L 2350 3322 
L 3597 3322 
L 3597 2988 
L 3225 2988 
L 1703 -750 
Q 1547 -1138 1356 -1280 
Q 1166 -1422 819 -1422 
Q 672 -1422 517 -1397 
Q 363 -1372 206 -1325 
L 206 -691 
L 500 -691 
Q 519 -903 608 -995 
Q 697 -1088 884 -1088 
Q 1056 -1088 1161 -992 
Q 1266 -897 1381 -609 
z
" transform="scale(0.015625)"/>
       <path id="DejaVuSerif-73" d="M 359 184 
L 359 959 
L 691 959 
Q 703 588 923 403 
Q 1144 219 1575 219 
Q 1963 219 2166 364 
Q 2369 509 2369 788 
Q 2369 1006 2220 1140 
Q 2072 1275 1594 1428 
L 1178 1569 
Q 750 1706 558 1912 
Q 366 2119 366 2438 
Q 366 2894 700 3153 
Q 1034 3413 1625 3413 
Q 1888 3413 2178 3344 
Q 2469 3275 2778 3144 
L 2778 2419 
L 2447 2419 
Q 2434 2741 2221 2922 
Q 2009 3103 1644 3103 
Q 1281 3103 1095 2975 
Q 909 2847 909 2591 
Q 909 2381 1050 2254 
Q 1191 2128 1613 1997 
L 2069 1856 
Q 2541 1709 2748 1489 
Q 2956 1269 2956 922 
Q 2956 450 2595 179 
Q 2234 -91 1600 -91 
Q 1278 -91 972 -22 
Q 666 47 359 184 
z
" transform="scale(0.015625)"/>
       <path id="DejaVuSerif-6d" d="M 3316 2675 
Q 3481 3041 3739 3227 
Q 3997 3413 4341 3413 
Q 4863 3413 5119 3089 
Q 5375 2766 5375 2113 
L 5375 331 
L 5894 331 
L 5894 0 
L 4300 0 
L 4300 331 
L 4800 331 
L 4800 2047 
Q 4800 2556 4650 2772 
Q 4500 2988 4153 2988 
Q 3769 2988 3567 2697 
Q 3366 2406 3366 1850 
L 3366 331 
L 3866 331 
L 3866 0 
L 2291 0 
L 2291 331 
L 2791 331 
L 2791 2069 
Q 2791 2566 2641 2777 
Q 2491 2988 2144 2988 
Q 1759 2988 1557 2697 
Q 1356 2406 1356 1850 
L 1356 331 
L 1856 331 
L 1856 0 
L 263 0 
L 263 331 
L 781 331 
L 781 2994 
L 231 2994 
L 231 3322 
L 1356 3322 
L 1356 2731 
Q 1516 3063 1762 3238 
Q 2009 3413 2322 3413 
Q 2709 3413 2968 3220 
Q 3228 3028 3316 2675 
z
" transform="scale(0.015625)"/>
       <path id="DejaVuSerif-70" d="M 1313 1825 
L 1313 1497 
Q 1313 897 1542 583 
Q 1772 269 2209 269 
Q 2650 269 2876 622 
Q 3103 975 3103 1663 
Q 3103 2353 2876 2703 
Q 2650 3053 2209 3053 
Q 1772 3053 1542 2737 
Q 1313 2422 1313 1825 
z
M 738 2988 
L 184 2988 
L 184 3322 
L 1313 3322 
L 1313 2803 
Q 1481 3116 1742 3264 
Q 2003 3413 2388 3413 
Q 3000 3413 3387 2928 
Q 3775 2444 3775 1663 
Q 3775 881 3387 395 
Q 3000 -91 2388 -91 
Q 2003 -91 1742 57 
Q 1481 206 1313 519 
L 1313 -997 
L 1856 -997 
L 1856 -1331 
L 184 -1331 
L 184 -997 
L 738 -997 
L 738 2988 
z
" transform="scale(0.015625)"/>
       <path id="DejaVuSerif-69" d="M 622 4353 
Q 622 4497 726 4603 
Q 831 4709 978 4709 
Q 1122 4709 1226 4603 
Q 1331 4497 1331 4353 
Q 1331 4206 1228 4103 
Q 1125 4000 978 4000 
Q 831 4000 726 4103 
Q 622 4206 622 4353 
z
M 1356 331 
L 1900 331 
L 1900 0 
L 231 0 
L 231 331 
L 781 331 
L 781 2988 
L 231 2988 
L 231 3322 
L 1356 3322 
L 1356 331 
z
" transform="scale(0.015625)"/>
       <path id="DejaVuSerif-4a" d="M -538 -1119 
L -538 -384 
L -181 -384 
Q -172 -694 -34 -845 
Q 103 -997 378 -997 
Q 750 -997 897 -762 
Q 1044 -528 1044 153 
L 1044 4331 
L 319 4331 
L 319 4666 
L 2272 4666 
L 2272 4331 
L 1678 4331 
L 1678 128 
Q 1678 -644 1368 -987 
Q 1059 -1331 372 -1331 
Q 150 -1331 -79 -1278 
Q -309 -1225 -538 -1119 
z
" transform="scale(0.015625)"/>
      </defs>
      <use xlink:href="#DejaVuSerif-54"/>
      <use xlink:href="#DejaVuSerif-6f" transform="translate(58.949219 0)"/>
      <use xlink:href="#DejaVuSerif-74" transform="translate(119.154297 0)"/>
      <use xlink:href="#DejaVuSerif-61" transform="translate(159.339844 0)"/>
      <use xlink:href="#DejaVuSerif-6c" transform="translate(218.958984 0)"/>
      <use xlink:href="#DejaVuSerif-20" transform="translate(250.941406 0)"/>
      <use xlink:href="#DejaVuSerif-45" transform="translate(282.728516 0)"/>
      <use xlink:href="#DejaVuSerif-6e" transform="translate(355.726562 0)"/>
      <use xlink:href="#DejaVuSerif-65" transform="translate(420.130859 0)"/>
      <use xlink:href="#DejaVuSerif-72" transform="translate(479.310547 0)"/>
      <use xlink:href="#DejaVuSerif-67" transform="translate(527.113281 0)"/>
      <use xlink:href="#DejaVuSerif-79" transform="translate(591.126953 0)"/>
      <use xlink:href="#DejaVuSerif-20" transform="translate(647.621094 0)"/>
      <use xlink:href="#DejaVuSerif-43" transform="translate(679.408203 0)"/>
      <use xlink:href="#DejaVuSerif-6f" transform="translate(755.921875 0)"/>
      <use xlink:href="#DejaVuSerif-6e" transform="translate(816.126953 0)"/>
      <use xlink:href="#DejaVuSerif-73" transform="translate(880.53125 0)"/>
      <use xlink:href="#DejaVuSerif-75" transform="translate(931.849609 0)"/>
      <use xlink:href="#DejaVuSerif-6d" transform="translate(996.253906 0)"/>
      <use xlink:href="#DejaVuSerif-70" transform="translate(1091.078125 0)"/>
      <use xlink:href="#DejaVuSerif-74" transform="translate(1155.091797 0)"/>
      <use xlink:href="#DejaVuSerif-69" transform="translate(1195.277344 0)"/>
      <use xlink:href="#DejaVuSerif-6f" transform="translate(1227.259766 0)"/>
      <use xlink:href="#DejaVuSerif-6e" transform="translate(1287.464844 0)"/>
      <use xlink:href="#DejaVuSerif-20" transform="translate(1351.869141 0)"/>
      <use xlink:href="#DejaVuSerif-28" transform="translate(1383.65625 0)"/>
      <use xlink:href="#DejaVuSerif-6d" transform="translate(1422.669922 0)"/>
      <use xlink:href="#DejaVuSerif-4a" transform="translate(1517.494141 0)"/>
      <use xlink:href="#DejaVuSerif-29" transform="translate(1557.582031 0)"/>
     </g>
    </g>
   </g>
   <g id="line2d_31">
    <path d="M 60.131094 102.429356 
L 129.881094 117.196796 
L 199.631094 131.039775 
L 269.381094 145.905699 
L 339.131094 159.619731 
L 408.881094 174.494749 
L 478.631094 187.589679 
" clip-path="url(#pacd32a0acb)" style="fill: none; stroke: #2e86ab; stroke-width: 2; stroke-linecap: square"/>
    <defs>
     <path id="ma8db567834" d="M 0 4 
C 1.060812 4 2.078319 3.578535 2.828427 2.828427 
C 3.578535 2.078319 4 1.060812 4 0 
C 4 -1.060812 3.578535 -2.078319 2.828427 -2.828427 
C 2.078319 -3.578535 1.060812 -4 0 -4 
C -1.060812 -4 -2.078319 -3.578535 -2.828427 -2.828427 
C -3.578535 -2.078319 -4 -1.060812 -4 0 
C -4 1.060812 -3.578535 2.078319 -2.828427 2.828427 
C -2.078319 3.578535 -1.060812 4 0 4 
z
" style="stroke: #2e86ab"/>
    </defs>
    <g clip-path="url(#pacd32a0acb)">
     <use xlink:href="#ma8db567834" x="60.131094" y="102.429356" style="fill: #2e86ab; stroke: #2e86ab"/>
     <use xlink:href="#ma8db567834" x="129.881094" y="117.196796" style="fill: #2e86ab; stroke: #2e86ab"/>
     <use xlink:href="#ma8db567834" x="199.631094" y="131.039775" style="fill: #2e86ab; stroke: #2e86ab"/>
     <use xlink:href="#ma8db567834" x="269.381094" y="145.905699" style="fill: #2e86ab; stroke: #2e86ab"/>
     <use xlink:href="#ma8db567834" x="339.131094" y="159.619731" style="fill: #2e86ab; stroke: #2e86ab"/>
     <use xlink:href="#ma8db567834" x="408.881094" y="174.494749" style="fill: #2e86ab; stroke: #2e86ab"/>
     <use xlink:href="#ma8db567834" x="478.631094" y="187.589679" style="fill: #2e86ab; stroke: #2e86ab"/>
    </g>
   </g>
   <g id="line2d_32">
    <path d="M 60.131094 34.918125 
L 129.881094 55.279699 
L 199.631094 72.01992 
L 269.381094 94.843304 
L 339.131094 104.288557 
L 408.881094 129.641094 
L 478.631094 143.808127 
" clip-path="url(#pacd32a0acb)" style="fill: none; stroke: #a23b72; stroke-width: 2; stroke-linecap: square"/>
    <defs>
     <path id="m489280fc3e" d="M -4 4 
L 4 4 
L 4 -4 
L -4 -4 
z
" style="stroke: #a23b72; stroke-linejoin: miter"/>
    </defs>
    <g clip-path="url(#pacd32a0acb)">
     <use xlink:href="#m489280fc3e" x="60.131094" y="34.918125" style="fill: #a23b72; stroke: #a23b72; stroke-linejoin: miter"/>
     <use xlink:href="#m489280fc3e" x="129.881094" y="55.279699" style="fill: #a23b72; stroke: #a23b72; stroke-linejoin: miter"/>
     <use xlink:href="#m489280fc3e" x="199.631094" y="72.01992" style="fill: #a23b72; stroke: #a23b72; stroke-linejoin: miter"/>
     <use xlink:href="#m489280fc3e" x="269.381094" y="94.843304" style="fill: #a23b72; stroke: #a23b72; stroke-linejoin: miter"/>
     <use xlink:href="#m489280fc3e" x="339.131094" y="104.288557" style="fill: #a23b72; stroke: #a23b72; stroke-linejoin: miter"/>
     <use xlink:href="#m489280fc3e" x="408.881094" y="129.641094" style="fill: #a23b72; stroke: #a23b72; stroke-linejoin: miter"/>
     <use xlink:href="#m489280fc3e" x="478.631094" y="143.808127" style="fill: #a23b72; stroke: #a23b72; stroke-linejoin: miter"/>
    </g>
   </g>
   <g id="line2d_33">
    <path d="M 60.131094 248.215364 
L 129.881094 255.174549 
L 199.631094 259.152272 
L 269.381094 263.540203 
L 339.131094 264.559037 
L 408.881094 276.488698 
L 478.631094 286.918125 
" clip-path="url(#pacd32a0acb)" style="fill: none; stroke: #f18f01; stroke-width: 2; stroke-linecap: square"/>
    <defs>
     <path id="m6ba91ec7e9" d="M 0 -4 
L -4 4 
L 4 4 
z
" style="stroke: #f18f01; stroke-linejoin: miter"/>
    </defs>
    <g clip-path="url(#pacd32a0acb)">
     <use xlink:href="#m6ba91ec7e9" x="60.131094" y="248.215364" style="fill: #f18f01; stroke: #f18f01; stroke-linejoin: miter"/>
     <use xlink:href="#m6ba91ec7e9" x="129.881094" y="255.174549" style="fill: #f18f01; stroke: #f18f01; stroke-linejoin: miter"/>
     <use xlink:href="#m6ba91ec7e9" x="199.631094" y="259.152272" style="fill: #f18f01; stroke: #f18f01; stroke-linejoin: miter"/>
     <use xlink:href="#m6ba91ec7e9" x="269.381094" y="263.540203" style="fill: #f18f01; stroke: #f18f01; stroke-linejoin: miter"/>
     <use xlink:href="#m6ba91ec7e9" x="339.131094" y="264.559037" style="fill: #f18f01; stroke: #f18f01; stroke-linejoin: miter"/>
     <use xlink:href="#m6ba91ec7e9" x="408.881094" y="276.488698" style="fill: #f18f01; stroke: #f18f01; stroke-linejoin: miter"/>
     <use xlink:href="#m6ba91ec7e9" x="478.631094" y="286.918125" style="fill: #f18f01; stroke: #f18f01; stroke-linejoin: miter"/>
    </g>
   </g>
   <g id="line2d_34">
    <path d="M 60.131094 83.603053 
L 129.881094 79.354391 
L 199.631094 91.664837 
L 269.381094 91.636469 
L 339.131094 107.377044 
L 408.881094 106.321173 
L 478.631094 127.602468 
" clip-path="url(#pacd32a0acb)" style="fill: none; stroke: #c73e1d; stroke-width: 2; stroke-linecap: square"/>
    <defs>
     <path id="m4b760c40a2" d="M 0 5.656854 
L 3.394113 0 
L 0 -5.656854 
L -3.394113 0 
z
" style="stroke: #c73e1d; stroke-linejoin: miter"/>
    </defs>
    <g clip-path="url(#pacd32a0acb)">
     <use xlink:href="#m4b760c40a2" x="60.131094" y="83.603053" style="fill: #c73e1d; stroke: #c73e1d; stroke-linejoin: miter"/>
     <use xlink:href="#m4b760c40a2" x="129.881094" y="79.354391" style="fill: #c73e1d; stroke: #c73e1d; stroke-linejoin: miter"/>
     <use xlink:href="#m4b760c40a2" x="199.631094" y="91.664837" style="fill: #c73e1d; stroke: #c73e1d; stroke-linejoin: miter"/>
     <use xlink:href="#m4b760c40a2" x="269.381094" y="91.636469" style="fill: #c73e1d; stroke: #c73e1d; stroke-linejoin: miter"/>
     <use xlink:href="#m4b760c40a2" x="339.131094" y="107.377044" style="fill: #c73e1d; stroke: #c73e1d; stroke-linejoin: miter"/>
     <use xlink:href="#m4b760c40a2" x="408.881094" y="106.321173" style="fill: #c73e1d; stroke: #c73e1d; stroke-linejoin: miter"/>
     <use xlink:href="#m4b760c40a2" x="478.631094" y="127.602468" style="fill: #c73e1d; stroke: #c73e1d; stroke-linejoin: miter"/>
    </g>
   </g>
   <g id="patch_3">
    <path d="M 46.181094 299.518125 
L 46.181094 22.318125 
" style="fill: none; stroke: #000000; stroke-width: 0.8; stroke-linejoin: miter; stroke-linecap: square"/>
   </g>
   <g id="patch_4">
    <path d="M 492.581094 299.518125 
L 492.581094 22.318125 
" style="fill: none; stroke: #000000; stroke-width: 0.8; stroke-linejoin: miter; stroke-linecap: square"/>
   </g>
   <g id="patch_5">
    <path d="M 46.181094 299.518125 
L 492.581094 299.518125 
" style="fill: none; stroke: #000000; stroke-width: 0.8; stroke-linejoin: miter; stroke-linecap: square"/>
   </g>
   <g id="patch_6">
    <path d="M 46.181094 22.318125 
L 492.581094 22.318125 
" style="fill: none; stroke: #000000; stroke-width: 0.8; stroke-linejoin: miter; stroke-linecap: square"/>
   </g>
   <g id="text_18">
    <!-- AERIS: 18.5% more efficient than LEACH -->
    <g transform="translate(269.381094 120.572891) scale(0.09 -0.09)">
     <defs>
      <path id="DejaVuSerif-Italic-41" d="M 1159 1691 
L 2872 1691 
L 2447 3909 
L 1159 1691 
z
M -488 0 
L -425 331 
L -16 331 
L 2491 4666 
L 3016 4666 
L 3841 331 
L 4297 331 
L 4234 0 
L 2538 0 
L 2600 331 
L 3119 331 
L 2928 1356 
L 966 1356 
L 375 331 
L 888 331 
L 825 0 
L -488 0 
z
" transform="scale(0.015625)"/>
      <path id="DejaVuSerif-Italic-45" d="M -97 0 
L -34 331 
L 559 331 
L 1338 4331 
L 744 4331 
L 809 4666 
L 4566 4666 
L 4366 3628 
L 3981 3628 
L 4106 4281 
L 1963 4281 
L 1659 2719 
L 3188 2719 
L 3300 3303 
L 3684 3303 
L 3384 1753 
L 3000 1753 
L 3113 2338 
L 1584 2338 
L 1206 384 
L 3400 384 
L 3525 1038 
L 3909 1038 
L 3709 0 
L -97 0 
z
" transform="scale(0.015625)"/>
      <path id="DejaVuSerif-Italic-52" d="M 3066 2316 
Q 3272 2256 3403 2114 
Q 3534 1972 3609 1716 
L 4016 331 
L 4584 331 
L 4522 0 
L 3422 0 
L 2981 1484 
Q 2856 1916 2706 2042 
Q 2556 2169 2250 2169 
L 1553 2169 
L 1194 331 
L 1853 331 
L 1791 0 
L -97 0 
L -34 331 
L 559 331 
L 1338 4331 
L 744 4331 
L 809 4666 
L 3175 4666 
Q 3856 4666 4164 4341 
Q 4472 4016 4356 3419 
Q 4263 2938 3938 2661 
Q 3613 2384 3066 2316 
z
M 1619 2503 
L 2541 2503 
Q 3013 2503 3280 2726 
Q 3547 2950 3639 3419 
Q 3731 3888 3548 4109 
Q 3366 4331 2894 4331 
L 1972 4331 
L 1619 2503 
z
" transform="scale(0.015625)"/>
      <path id="DejaVuSerif-Italic-49" d="M 1194 331 
L 1788 331 
L 1725 0 
L -97 0 
L -34 331 
L 559 331 
L 1338 4331 
L 744 4331 
L 809 4666 
L 2631 4666 
L 2566 4331 
L 1972 4331 
L 1194 331 
z
" transform="scale(0.015625)"/>
      <path id="DejaVuSerif-Italic-53" d="M 184 225 
L 391 1288 
L 750 1284 
Q 663 753 905 498 
Q 1147 244 1744 244 
Q 2300 244 2636 464 
Q 2972 684 3053 1106 
Q 3119 1444 2976 1625 
Q 2834 1806 2300 1978 
L 1722 2163 
Q 1091 2366 877 2669 
Q 663 2972 766 3500 
Q 881 4094 1367 4422 
Q 1853 4750 2616 4750 
Q 2941 4750 3314 4679 
Q 3688 4609 4097 4475 
L 3906 3481 
L 3553 3481 
Q 3594 3975 3361 4195 
Q 3128 4416 2563 4416 
Q 2069 4416 1772 4214 
Q 1475 4013 1400 3628 
Q 1334 3294 1490 3103 
Q 1647 2913 2241 2725 
L 2784 2553 
Q 3381 2363 3593 2067 
Q 3806 1772 3709 1275 
Q 3578 597 3076 253 
Q 2575 -91 1716 -91 
Q 1331 -91 948 -12 
Q 566 66 184 225 
z
" transform="scale(0.015625)"/>
      <path id="DejaVuSerif-Italic-3a" d="M 529 29 
Q 434 150 468 325 
Q 503 500 647 622 
Q 791 744 966 744 
Q 1141 744 1237 622 
Q 1334 500 1300 325 
Q 1266 150 1123 29 
Q 981 -91 803 -91 
Q 625 -91 529 29 
z
M 926 2067 
Q 828 2188 862 2363 
Q 897 2538 1040 2658 
Q 1184 2778 1359 2778 
Q 1538 2778 1633 2659 
Q 1728 2541 1693 2362 
Q 1659 2184 1518 2065 
Q 1378 1947 1200 1947 
Q 1025 1947 926 2067 
z
" transform="scale(0.015625)"/>
      <path id="DejaVuSerif-Italic-20" transform="scale(0.015625)"/>
      <path id="DejaVuSerif-Italic-31" d="M 447 0 
L 513 331 
L 1325 331 
L 2078 4213 
L 1019 3603 
L 1100 4013 
L 2381 4750 
L 2813 4750 
L 1953 331 
L 2766 331 
L 2700 0 
L 447 0 
z
" transform="scale(0.015625)"/>
      <path id="DejaVuSerif-Italic-38" d="M 2775 1275 
Q 2872 1775 2678 2051 
Q 2484 2328 2034 2328 
Q 1584 2328 1281 2051 
Q 978 1775 881 1275 
Q 784 772 979 495 
Q 1175 219 1625 219 
Q 2075 219 2376 495 
Q 2678 772 2775 1275 
z
M 3088 3541 
Q 3172 3966 3001 4203 
Q 2831 4441 2444 4441 
Q 2059 4441 1796 4203 
Q 1534 3966 1450 3541 
Q 1369 3113 1539 2875 
Q 1709 2638 2094 2638 
Q 2481 2638 2743 2875 
Q 3006 3113 3088 3541 
z
M 2547 2484 
Q 3063 2413 3297 2092 
Q 3531 1772 3434 1275 
Q 3309 619 2823 264 
Q 2338 -91 1563 -91 
Q 791 -91 444 264 
Q 97 619 222 1275 
Q 319 1772 678 2092 
Q 1038 2413 1588 2484 
Q 1131 2569 932 2842 
Q 734 3116 816 3541 
Q 925 4103 1376 4426 
Q 1828 4750 2506 4750 
Q 3184 4750 3507 4426 
Q 3831 4103 3722 3541 
Q 3641 3116 3336 2842 
Q 3031 2569 2547 2484 
z
" transform="scale(0.015625)"/>
      <path id="DejaVuSerif-Italic-2e" d="M 664 29 
Q 569 150 603 325 
Q 638 500 780 622 
Q 922 744 1100 744 
Q 1272 744 1370 622 
Q 1469 500 1434 325 
Q 1400 153 1254 31 
Q 1109 -91 938 -91 
Q 759 -91 664 29 
z
" transform="scale(0.015625)"/>
      <path id="DejaVuSerif-Italic-35" d="M 3681 4666 
L 3581 4153 
L 1444 4153 
L 1184 2816 
Q 1369 2928 1597 2984 
Q 1825 3041 2094 3041 
Q 2850 3041 3206 2622 
Q 3563 2203 3422 1478 
Q 3278 738 2754 323 
Q 2231 -91 1431 -91 
Q 1109 -91 787 -12 
Q 466 66 144 225 
L 319 1131 
L 672 1131 
Q 613 688 822 453 
Q 1031 219 1491 219 
Q 1984 219 2314 544 
Q 2644 869 2763 1478 
Q 2878 2084 2678 2407 
Q 2478 2731 1981 2731 
Q 1700 2731 1465 2631 
Q 1231 2531 1025 2322 
L 756 2322 
L 1213 4666 
L 3681 4666 
z
" transform="scale(0.015625)"/>
      <path id="DejaVuSerif-Italic-25" d="M 1847 4459 
Q 1572 4459 1367 4200 
Q 1163 3941 1072 3475 
Q 984 3016 1090 2753 
Q 1197 2491 1466 2491 
Q 1731 2491 1936 2752 
Q 2141 3013 2231 3475 
Q 2322 3938 2217 4198 
Q 2113 4459 1847 4459 
z
M 4622 2169 
Q 4350 2169 4144 1906 
Q 3938 1644 3847 1178 
Q 3759 719 3864 458 
Q 3969 197 4237 197 
Q 4506 197 4711 458 
Q 4916 719 5003 1178 
Q 5094 1641 4991 1905 
Q 4888 2169 4622 2169 
z
M 4675 2450 
Q 5169 2450 5394 2106 
Q 5619 1763 5505 1178 
Q 5391 594 5031 251 
Q 4672 -91 4181 -91 
Q 3681 -91 3457 251 
Q 3234 594 3347 1178 
Q 3463 1766 3820 2108 
Q 4178 2450 4675 2450 
z
M 4734 4750 
L 5209 4750 
L 1347 -91 
L 872 -91 
L 4734 4750 
z
M 1048 4406 
Q 1406 4750 1900 4750 
Q 2394 4750 2620 4408 
Q 2847 4066 2734 3481 
Q 2619 2891 2261 2550 
Q 1903 2209 1406 2209 
Q 909 2209 686 2551 
Q 463 2894 578 3481 
Q 691 4063 1048 4406 
z
" transform="scale(0.015625)"/>
      <path id="DejaVuSerif-Italic-6d" d="M 3503 2675 
Q 3741 3041 4034 3227 
Q 4328 3413 4672 3413 
Q 5194 3413 5388 3088 
Q 5503 2894 5503 2578 
Q 5503 2372 5453 2113 
L 5106 331 
L 5625 331 
L 5563 0 
L 4469 0 
L 4866 2047 
Q 4913 2291 4913 2466 
Q 4913 2659 4856 2772 
Q 4750 2988 4403 2988 
Q 4019 2988 3761 2697 
Q 3503 2406 3394 1850 
L 3034 0 
L 2459 0 
L 2863 2069 
Q 2906 2303 2906 2472 
Q 2906 2666 2850 2775 
Q 2741 2988 2394 2988 
Q 2009 2988 1751 2697 
Q 1494 2406 1384 1850 
L 1025 0 
L 450 0 
L 1031 2994 
L 481 2994 
L 544 3322 
L 1669 3322 
L 1556 2731 
Q 1778 3063 2059 3238 
Q 2341 3413 2653 3413 
Q 3041 3413 3262 3220 
Q 3484 3028 3503 2675 
z
" transform="scale(0.015625)"/>
      <path id="DejaVuSerif-Italic-6f" d="M 1644 219 
Q 2106 219 2414 584 
Q 2722 950 2859 1663 
Q 2922 1988 2922 2241 
Q 2922 2541 2834 2738 
Q 2669 3103 2206 3103 
Q 1744 3103 1436 2739 
Q 1128 2375 991 1663 
Q 928 1338 928 1088 
Q 928 784 1019 584 
Q 1184 219 1644 219 
z
M 1584 -91 
Q 859 -91 513 388 
Q 272 722 272 1203 
Q 272 1419 319 1663 
Q 472 2456 1005 2934 
Q 1538 3413 2266 3413 
Q 2994 3413 3341 2934 
Q 3578 2603 3578 2122 
Q 3578 1906 3531 1663 
Q 3378 869 2845 389 
Q 2313 -91 1584 -91 
z
" transform="scale(0.015625)"/>
      <path id="DejaVuSerif-Italic-72" d="M 3375 3328 
L 3213 2497 
L 2881 2497 
Q 2891 2559 2891 2613 
Q 2891 2775 2816 2866 
Q 2719 2988 2484 2988 
Q 2059 2988 1775 2694 
Q 1491 2400 1384 1850 
L 1025 0 
L 450 0 
L 1031 2994 
L 481 2994 
L 544 3322 
L 1669 3322 
L 1556 2731 
Q 1791 3078 2089 3245 
Q 2388 3413 2769 3413 
Q 2909 3413 3059 3391 
Q 3209 3369 3375 3328 
z
" transform="scale(0.015625)"/>
      <path id="DejaVuSerif-Italic-65" d="M 938 1275 
Q 925 1156 925 1050 
Q 925 756 1031 563 
Q 1216 219 1709 219 
Q 2072 219 2250 328 
Q 2569 525 2644 778 
L 3066 778 
Q 2941 381 2475 103 
Q 2150 -91 1506 -91 
Q 863 -91 516 388 
Q 272 722 272 1206 
Q 272 1419 319 1659 
Q 472 2450 1000 2931 
Q 1528 3413 2278 3413 
Q 3500 3413 3500 2547 
Q 3500 1913 2859 1603 
Q 2206 1288 938 1275 
z
M 2541 1975 
Q 2891 2181 2891 2569 
Q 2891 3103 2181 3103 
Q 1763 3103 1472 2784 
Q 1181 2466 1003 1606 
Q 2006 1653 2541 1975 
z
" transform="scale(0.015625)"/>
      <path id="DejaVuSerif-Italic-66" d="M 3191 4078 
L 2888 4078 
Q 2900 4144 2900 4203 
Q 2900 4347 2825 4434 
Q 2719 4556 2472 4556 
Q 2150 4556 1984 4379 
Q 1819 4203 1731 3750 
L 1647 3322 
L 2575 3322 
L 2509 2988 
L 1581 2988 
L 963 -206 
Q 853 -763 509 -1047 
Q 166 -1331 -394 -1331 
L -356 -1025 
Q -28 -1025 131 -850 
Q 297 -663 388 -206 
L 1006 2988 
L 456 2988 
L 522 3322 
L 1072 3322 
L 1153 3738 
Q 1263 4297 1606 4578 
Q 1950 4863 2509 4863 
Q 2719 4863 2920 4825 
Q 3122 4788 3316 4709 
L 3191 4078 
z
" transform="scale(0.015625)"/>
      <path id="DejaVuSerif-Italic-69" d="M 1009 4353 
Q 1038 4497 1163 4603 
Q 1288 4709 1434 4709 
Q 1578 4709 1663 4603 
Q 1728 4522 1728 4422 
Q 1728 4388 1719 4353 
Q 1691 4206 1567 4103 
Q 1444 4000 1297 4000 
Q 1150 4000 1066 4103 
Q 1003 4181 1003 4281 
Q 1003 4316 1009 4353 
z
M 963 331 
L 1506 331 
L 1444 0 
L 325 0 
L 903 2988 
L 353 2988 
L 419 3322 
L 1544 3322 
L 963 331 
z
" transform="scale(0.015625)"/>
      <path id="DejaVuSerif-Italic-63" d="M 3163 997 
Q 2938 466 2536 187 
Q 2134 -91 1584 -91 
Q 859 -91 513 388 
Q 272 722 272 1203 
Q 272 1419 319 1663 
Q 475 2459 1008 2936 
Q 1541 3413 2266 3413 
Q 2581 3413 2879 3339 
Q 3178 3266 3463 3116 
L 3300 2266 
L 2966 2266 
Q 2966 2309 2966 2347 
Q 2966 2722 2803 2903 
Q 2622 3103 2213 3103 
Q 1747 3103 1439 2742 
Q 1131 2381 991 1663 
Q 928 1334 928 1078 
Q 928 778 1016 581 
Q 1181 219 1650 219 
Q 2022 219 2281 412 
Q 2541 606 2700 997 
L 3163 997 
z
" transform="scale(0.015625)"/>
      <path id="DejaVuSerif-Italic-6e" d="M 450 0 
L 1031 2988 
L 481 2988 
L 544 3322 
L 1669 3322 
L 1556 2731 
Q 1781 3069 2068 3241 
Q 2356 3413 2694 3413 
Q 3244 3413 3444 3097 
Q 3563 2906 3563 2588 
Q 3563 2378 3509 2113 
L 3163 331 
L 3675 331 
L 3613 0 
L 2522 0 
L 2897 1931 
Q 2959 2253 2959 2469 
Q 2959 2659 2909 2769 
Q 2803 2994 2425 2994 
Q 2025 2994 1759 2701 
Q 1494 2409 1384 1850 
L 1025 0 
L 450 0 
z
" transform="scale(0.015625)"/>
      <path id="DejaVuSerif-Italic-74" d="M 856 2988 
L 350 2988 
L 416 3322 
L 922 3322 
L 1122 4353 
L 1700 4353 
L 1500 3322 
L 2581 3322 
L 2516 2988 
L 1434 2988 
L 1025 878 
Q 978 631 978 488 
Q 978 388 1000 338 
Q 1059 219 1278 219 
Q 1503 219 1633 351 
Q 1763 484 1825 781 
L 2259 781 
Q 2147 328 1884 118 
Q 1622 -91 1169 -91 
Q 672 -91 506 131 
Q 406 266 406 516 
Q 406 675 447 878 
L 856 2988 
z
" transform="scale(0.015625)"/>
      <path id="DejaVuSerif-Italic-68" d="M 309 0 
L 1191 4531 
L 641 4531 
L 703 4863 
L 1828 4863 
L 1416 2731 
Q 1641 3069 1928 3241 
Q 2216 3413 2553 3413 
Q 3103 3413 3300 3097 
Q 3422 2906 3422 2588 
Q 3422 2378 3369 2113 
L 3022 331 
L 3534 331 
L 3472 0 
L 2381 0 
L 2756 1931 
Q 2819 2253 2819 2469 
Q 2819 2659 2769 2763 
Q 2666 2988 2284 2988 
Q 1884 2988 1617 2697 
Q 1350 2406 1244 1850 
L 884 0 
L 309 0 
z
" transform="scale(0.015625)"/>
      <path id="DejaVuSerif-Italic-61" d="M 2325 519 
Q 1909 -91 1238 -91 
Q 688 -91 409 281 
Q 216 544 216 919 
Q 216 1078 250 1256 
Q 463 2359 1231 2928 
Q 1884 3413 2675 3413 
Q 3206 3413 3388 3322 
L 2806 331 
L 3300 331 
L 3238 0 
L 2225 0 
L 2325 519 
z
M 822 938 
Q 822 269 1469 269 
Q 1863 269 2130 583 
Q 2397 897 2516 1497 
L 2806 3003 
L 2806 3003 
Q 2806 3094 2556 3094 
Q 1956 3094 1491 2625 
Q 1028 2153 863 1297 
Q 822 1097 822 938 
z
" transform="scale(0.015625)"/>
      <path id="DejaVuSerif-Italic-4c" d="M -97 0 
L -34 331 
L 559 331 
L 1338 4331 
L 744 4331 
L 809 4666 
L 2631 4666 
L 2566 4331 
L 1972 4331 
L 1206 384 
L 3338 384 
L 3488 1166 
L 3872 1166 
L 3647 0 
L -97 0 
z
" transform="scale(0.015625)"/>
      <path id="DejaVuSerif-Italic-43" d="M 4300 1234 
Q 3966 581 3414 245 
Q 2863 -91 2119 -91 
Q 1663 -91 1303 65 
Q 944 222 700 525 
Q 419 875 334 1320 
Q 250 1766 359 2328 
Q 572 3416 1330 4083 
Q 2088 4750 3116 4750 
Q 3497 4750 3908 4650 
Q 4319 4550 4775 4347 
L 4569 3272 
L 4216 3272 
Q 4213 3859 3919 4137 
Q 3625 4416 2997 4416 
Q 2250 4416 1762 3886 
Q 1275 3356 1075 2328 
Q 875 1303 1156 773 
Q 1438 244 2184 244 
Q 2706 244 3092 492 
Q 3478 741 3725 1234 
L 4300 1234 
z
" transform="scale(0.015625)"/>
      <path id="DejaVuSerif-Italic-48" d="M -97 0 
L -34 331 
L 559 331 
L 1338 4331 
L 744 4331 
L 809 4666 
L 2631 4666 
L 2566 4331 
L 1972 4331 
L 1659 2719 
L 4078 2719 
L 4391 4331 
L 3797 4331 
L 3863 4666 
L 5684 4666 
L 5619 4331 
L 5025 4331 
L 4247 331 
L 4841 331 
L 4778 0 
L 2956 0 
L 3019 331 
L 3616 331 
L 4003 2338 
L 1584 2338 
L 1194 331 
L 1788 331 
L 1725 0 
L -97 0 
z
" transform="scale(0.015625)"/>
     </defs>
     <use xlink:href="#DejaVuSerif-Italic-41"/>
     <use xlink:href="#DejaVuSerif-Italic-45" transform="translate(72.216797 0)"/>
     <use xlink:href="#DejaVuSerif-Italic-52" transform="translate(145.214844 0)"/>
     <use xlink:href="#DejaVuSerif-Italic-49" transform="translate(220.507812 0)"/>
     <use xlink:href="#DejaVuSerif-Italic-53" transform="translate(260.009766 0)"/>
     <use xlink:href="#DejaVuSerif-Italic-3a" transform="translate(328.515625 0)"/>
     <use xlink:href="#DejaVuSerif-Italic-20" transform="translate(362.207031 0)"/>
     <use xlink:href="#DejaVuSerif-Italic-31" transform="translate(393.994141 0)"/>
     <use xlink:href="#DejaVuSerif-Italic-38" transform="translate(457.617188 0)"/>
     <use xlink:href="#DejaVuSerif-Italic-2e" transform="translate(521.240234 0)"/>
     <use xlink:href="#DejaVuSerif-Italic-35" transform="translate(553.027344 0)"/>
     <use xlink:href="#DejaVuSerif-Italic-25" transform="translate(616.650391 0)"/>
     <use xlink:href="#DejaVuSerif-Italic-20" transform="translate(711.669922 0)"/>
     <use xlink:href="#DejaVuSerif-Italic-6d" transform="translate(743.457031 0)"/>
     <use xlink:href="#DejaVuSerif-Italic-6f" transform="translate(838.28125 0)"/>
     <use xlink:href="#DejaVuSerif-Italic-72" transform="translate(898.486328 0)"/>
     <use xlink:href="#DejaVuSerif-Italic-65" transform="translate(946.289062 0)"/>
     <use xlink:href="#DejaVuSerif-Italic-20" transform="translate(1005.46875 0)"/>
     <use xlink:href="#DejaVuSerif-Italic-65" transform="translate(1037.255859 0)"/>
     <use xlink:href="#DejaVuSerif-Italic-66" transform="translate(1096.435547 0)"/>
     <use xlink:href="#DejaVuSerif-Italic-66" transform="translate(1133.447266 0)"/>
     <use xlink:href="#DejaVuSerif-Italic-69" transform="translate(1170.458984 0)"/>
     <use xlink:href="#DejaVuSerif-Italic-63" transform="translate(1202.441406 0)"/>
     <use xlink:href="#DejaVuSerif-Italic-69" transform="translate(1258.447266 0)"/>
     <use xlink:href="#DejaVuSerif-Italic-65" transform="translate(1290.429688 0)"/>
     <use xlink:href="#DejaVuSerif-Italic-6e" transform="translate(1349.609375 0)"/>
     <use xlink:href="#DejaVuSerif-Italic-74" transform="translate(1414.013672 0)"/>
     <use xlink:href="#DejaVuSerif-Italic-20" transform="translate(1454.199219 0)"/>
     <use xlink:href="#DejaVuSerif-Italic-74" transform="translate(1485.986328 0)"/>
     <use xlink:href="#DejaVuSerif-Italic-68" transform="translate(1526.171875 0)"/>
     <use xlink:href="#DejaVuSerif-Italic-61" transform="translate(1590.576172 0)"/>
     <use xlink:href="#DejaVuSerif-Italic-6e" transform="translate(1650.195312 0)"/>
     <use xlink:href="#DejaVuSerif-Italic-20" transform="translate(1714.599609 0)"/>
     <use xlink:href="#DejaVuSerif-Italic-4c" transform="translate(1746.386719 0)"/>
     <use xlink:href="#DejaVuSerif-Italic-45" transform="translate(1812.792969 0)"/>
     <use xlink:href="#DejaVuSerif-Italic-41" transform="translate(1885.791016 0)"/>
     <use xlink:href="#DejaVuSerif-Italic-43" transform="translate(1958.007812 0)"/>
     <use xlink:href="#DejaVuSerif-Italic-48" transform="translate(2034.521484 0)"/>
    </g>
   </g>
   <g id="text_19">
    <!-- Energy Efficiency Under Node Churn -->
    <g transform="translate(155.186094 16.318125) scale(0.12 -0.12)">
     <defs>
      <path id="DejaVuSerif-66" d="M 2753 4078 
L 2450 4078 
Q 2447 4313 2317 4434 
Q 2188 4556 1941 4556 
Q 1619 4556 1487 4379 
Q 1356 4203 1356 3750 
L 1356 3322 
L 2284 3322 
L 2284 2988 
L 1356 2988 
L 1356 331 
L 2094 331 
L 2094 0 
L 231 0 
L 231 331 
L 781 331 
L 781 2988 
L 231 2988 
L 231 3322 
L 781 3322 
L 781 3738 
Q 781 4294 1070 4578 
Q 1359 4863 1919 4863 
Q 2128 4863 2337 4825 
Q 2547 4788 2753 4709 
L 2753 4078 
z
" transform="scale(0.015625)"/>
      <path id="DejaVuSerif-63" d="M 3291 997 
Q 3169 466 2822 187 
Q 2475 -91 1925 -91 
Q 1200 -91 759 389 
Q 319 869 319 1663 
Q 319 2459 759 2936 
Q 1200 3413 1925 3413 
Q 2241 3413 2553 3339 
Q 2866 3266 3181 3116 
L 3181 2266 
L 2847 2266 
Q 2781 2703 2561 2903 
Q 2341 3103 1931 3103 
Q 1466 3103 1228 2742 
Q 991 2381 991 1663 
Q 991 944 1227 581 
Q 1463 219 1931 219 
Q 2303 219 2525 412 
Q 2747 606 2828 997 
L 3291 997 
z
" transform="scale(0.015625)"/>
      <path id="DejaVuSerif-55" d="M 897 4331 
L 300 4331 
L 300 4666 
L 2125 4666 
L 2125 4331 
L 1528 4331 
L 1528 1919 
Q 1528 1025 1820 672 
Q 2113 319 2828 319 
Q 3544 319 3836 672 
Q 4128 1025 4128 1919 
L 4128 4331 
L 3531 4331 
L 3531 4666 
L 5106 4666 
L 5106 4331 
L 4513 4331 
L 4513 1856 
Q 4513 791 4103 350 
Q 3694 -91 2713 -91 
Q 1731 -91 1314 353 
Q 897 797 897 1856 
L 897 4331 
z
" transform="scale(0.015625)"/>
     </defs>
     <use xlink:href="#DejaVuSerif-45"/>
     <use xlink:href="#DejaVuSerif-6e" transform="translate(72.998047 0)"/>
     <use xlink:href="#DejaVuSerif-65" transform="translate(137.402344 0)"/>
     <use xlink:href="#DejaVuSerif-72" transform="translate(196.582031 0)"/>
     <use xlink:href="#DejaVuSerif-67" transform="translate(244.384766 0)"/>
     <use xlink:href="#DejaVuSerif-79" transform="translate(308.398438 0)"/>
     <use xlink:href="#DejaVuSerif-20" transform="translate(364.892578 0)"/>
     <use xlink:href="#DejaVuSerif-45" transform="translate(396.679688 0)"/>
     <use xlink:href="#DejaVuSerif-66" transform="translate(469.677734 0)"/>
     <use xlink:href="#DejaVuSerif-66" transform="translate(506.689453 0)"/>
     <use xlink:href="#DejaVuSerif-69" transform="translate(543.701172 0)"/>
     <use xlink:href="#DejaVuSerif-63" transform="translate(575.683594 0)"/>
     <use xlink:href="#DejaVuSerif-69" transform="translate(631.689453 0)"/>
     <use xlink:href="#DejaVuSerif-65" transform="translate(663.671875 0)"/>
     <use xlink:href="#DejaVuSerif-6e" transform="translate(722.851562 0)"/>
     <use xlink:href="#DejaVuSerif-63" transform="translate(787.255859 0)"/>
     <use xlink:href="#DejaVuSerif-79" transform="translate(843.261719 0)"/>
     <use xlink:href="#DejaVuSerif-20" transform="translate(899.755859 0)"/>
     <use xlink:href="#DejaVuSerif-55" transform="translate(931.542969 0)"/>
     <use xlink:href="#DejaVuSerif-6e" transform="translate(1015.820312 0)"/>
     <use xlink:href="#DejaVuSerif-64" transform="translate(1080.224609 0)"/>
     <use xlink:href="#DejaVuSerif-65" transform="translate(1144.238281 0)"/>
     <use xlink:href="#DejaVuSerif-72" transform="translate(1203.417969 0)"/>
     <use xlink:href="#DejaVuSerif-20" transform="translate(1251.220703 0)"/>
     <use xlink:href="#DejaVuSerif-4e" transform="translate(1283.007812 0)"/>
     <use xlink:href="#DejaVuSerif-6f" transform="translate(1370.507812 0)"/>
     <use xlink:href="#DejaVuSerif-64" transform="translate(1430.712891 0)"/>
     <use xlink:href="#DejaVuSerif-65" transform="translate(1494.726562 0)"/>
     <use xlink:href="#DejaVuSerif-20" transform="translate(1553.90625 0)"/>
     <use xlink:href="#DejaVuSerif-43" transform="translate(1585.693359 0)"/>
     <use xlink:href="#DejaVuSerif-68" transform="translate(1662.207031 0)"/>
     <use xlink:href="#DejaVuSerif-75" transform="translate(1726.611328 0)"/>
     <use xlink:href="#DejaVuSerif-72" transform="translate(1791.015625 0)"/>
     <use xlink:href="#DejaVuSerif-6e" transform="translate(1838.818359 0)"/>
    </g>
   </g>
   <g id="legend_1">
    <g id="patch_7">
     <path d="M 415.280937 82.359375 
L 486.281094 82.359375 
Q 488.081094 82.359375 488.081094 80.559375 
L 488.081094 28.618125 
Q 488.081094 26.818125 486.281094 26.818125 
L 415.280937 26.818125 
Q 413.480937 26.818125 413.480937 28.618125 
L 413.480937 80.559375 
Q 413.480937 82.359375 415.280937 82.359375 
z
" style="fill: #ffffff; opacity: 0.8; stroke: #cccccc; stroke-linejoin: miter"/>
    </g>
    <g id="line2d_35">
     <path d="M 417.080938 34.106719 
L 426.080938 34.106719 
L 435.080938 34.106719 
" style="fill: none; stroke: #2e86ab; stroke-width: 2; stroke-linecap: square"/>
     <g>
      <use xlink:href="#ma8db567834" x="426.080938" y="34.106719" style="fill: #2e86ab; stroke: #2e86ab"/>
     </g>
    </g>
    <g id="text_20">
     <!-- AERIS -->
     <g transform="translate(442.280937 37.256719) scale(0.09 -0.09)">
      <defs>
       <path id="DejaVuSerif-41" d="M 1281 1691 
L 2994 1691 
L 2138 3909 
L 1281 1691 
z
M -38 0 
L -38 331 
L 372 331 
L 2034 4666 
L 2559 4666 
L 4225 331 
L 4684 331 
L 4684 0 
L 2988 0 
L 2988 331 
L 3506 331 
L 3116 1356 
L 1153 1356 
L 763 331 
L 1275 331 
L 1275 0 
L -38 0 
z
" transform="scale(0.015625)"/>
       <path id="DejaVuSerif-49" d="M 1581 331 
L 2175 331 
L 2175 0 
L 353 0 
L 353 331 
L 947 331 
L 947 4331 
L 353 4331 
L 353 4666 
L 2175 4666 
L 2175 4331 
L 1581 4331 
L 1581 331 
z
" transform="scale(0.015625)"/>
       <path id="DejaVuSerif-53" d="M 594 225 
L 594 1288 
L 953 1284 
Q 969 753 1261 498 
Q 1553 244 2150 244 
Q 2706 244 2998 464 
Q 3291 684 3291 1106 
Q 3291 1444 3114 1625 
Q 2938 1806 2369 1978 
L 1753 2163 
Q 1084 2366 811 2669 
Q 538 2972 538 3500 
Q 538 4094 959 4422 
Q 1381 4750 2144 4750 
Q 2469 4750 2856 4679 
Q 3244 4609 3681 4475 
L 3681 3481 
L 3328 3481 
Q 3275 3975 2998 4195 
Q 2722 4416 2156 4416 
Q 1663 4416 1405 4214 
Q 1147 4013 1147 3628 
Q 1147 3294 1340 3103 
Q 1534 2913 2163 2725 
L 2741 2553 
Q 3375 2363 3645 2067 
Q 3916 1772 3916 1275 
Q 3916 597 3481 253 
Q 3047 -91 2188 -91 
Q 1803 -91 1404 -12 
Q 1006 66 594 225 
z
" transform="scale(0.015625)"/>
      </defs>
      <use xlink:href="#DejaVuSerif-41"/>
      <use xlink:href="#DejaVuSerif-45" transform="translate(72.216797 0)"/>
      <use xlink:href="#DejaVuSerif-52" transform="translate(145.214844 0)"/>
      <use xlink:href="#DejaVuSerif-49" transform="translate(220.507812 0)"/>
      <use xlink:href="#DejaVuSerif-53" transform="translate(260.009766 0)"/>
     </g>
    </g>
    <g id="line2d_36">
     <path d="M 417.080938 47.317031 
L 426.080938 47.317031 
L 435.080938 47.317031 
" style="fill: none; stroke: #a23b72; stroke-width: 2; stroke-linecap: square"/>
     <g>
      <use xlink:href="#m489280fc3e" x="426.080938" y="47.317031" style="fill: #a23b72; stroke: #a23b72; stroke-linejoin: miter"/>
     </g>
    </g>
    <g id="text_21">
     <!-- LEACH -->
     <g transform="translate(442.280937 50.467031) scale(0.09 -0.09)">
      <defs>
       <path id="DejaVuSerif-4c" d="M 353 0 
L 353 331 
L 947 331 
L 947 4331 
L 353 4331 
L 353 4666 
L 2175 4666 
L 2175 4331 
L 1581 4331 
L 1581 384 
L 3713 384 
L 3713 1166 
L 4097 1166 
L 4097 0 
L 353 0 
z
" transform="scale(0.015625)"/>
       <path id="DejaVuSerif-48" d="M 353 0 
L 353 331 
L 947 331 
L 947 4331 
L 353 4331 
L 353 4666 
L 2175 4666 
L 2175 4331 
L 1581 4331 
L 1581 2719 
L 4000 2719 
L 4000 4331 
L 3406 4331 
L 3406 4666 
L 5228 4666 
L 5228 4331 
L 4634 4331 
L 4634 331 
L 5228 331 
L 5228 0 
L 3406 0 
L 3406 331 
L 4000 331 
L 4000 2338 
L 1581 2338 
L 1581 331 
L 2175 331 
L 2175 0 
L 353 0 
z
" transform="scale(0.015625)"/>
      </defs>
      <use xlink:href="#DejaVuSerif-4c"/>
      <use xlink:href="#DejaVuSerif-45" transform="translate(66.40625 0)"/>
      <use xlink:href="#DejaVuSerif-41" transform="translate(139.404297 0)"/>
      <use xlink:href="#DejaVuSerif-43" transform="translate(211.621094 0)"/>
      <use xlink:href="#DejaVuSerif-48" transform="translate(288.134766 0)"/>
     </g>
    </g>
    <g id="line2d_37">
     <path d="M 417.080938 60.527344 
L 426.080938 60.527344 
L 435.080938 60.527344 
" style="fill: none; stroke: #f18f01; stroke-width: 2; stroke-linecap: square"/>
     <g>
      <use xlink:href="#m6ba91ec7e9" x="426.080938" y="60.527344" style="fill: #f18f01; stroke: #f18f01; stroke-linejoin: miter"/>
     </g>
    </g>
    <g id="text_22">
     <!-- PEGASIS -->
     <g transform="translate(442.280937 63.677344) scale(0.09 -0.09)">
      <defs>
       <path id="DejaVuSerif-50" d="M 1581 2375 
L 2406 2375 
Q 2872 2375 3115 2626 
Q 3359 2878 3359 3353 
Q 3359 3831 3115 4081 
Q 2872 4331 2406 4331 
L 1581 4331 
L 1581 2375 
z
M 353 0 
L 353 331 
L 947 331 
L 947 4331 
L 353 4331 
L 353 4666 
L 2559 4666 
Q 3259 4666 3668 4311 
Q 4078 3956 4078 3353 
Q 4078 2753 3668 2397 
Q 3259 2041 2559 2041 
L 1581 2041 
L 1581 331 
L 2303 331 
L 2303 0 
L 353 0 
z
" transform="scale(0.015625)"/>
       <path id="DejaVuSerif-47" d="M 4097 3272 
Q 3988 3856 3641 4136 
Q 3294 4416 2675 4416 
Q 1869 4416 1472 3897 
Q 1075 3378 1075 2328 
Q 1075 1300 1484 772 
Q 1894 244 2688 244 
Q 3041 244 3362 331 
Q 3684 419 3975 594 
L 3975 1797 
L 3097 1797 
L 3097 2131 
L 4609 2131 
L 4609 391 
Q 4194 150 3714 29 
Q 3234 -91 2688 -91 
Q 1631 -91 995 570 
Q 359 1231 359 2328 
Q 359 3434 996 4092 
Q 1634 4750 2713 4750 
Q 3113 4750 3539 4658 
Q 3966 4566 4447 4378 
L 4447 3272 
L 4097 3272 
z
" transform="scale(0.015625)"/>
      </defs>
      <use xlink:href="#DejaVuSerif-50"/>
      <use xlink:href="#DejaVuSerif-45" transform="translate(67.285156 0)"/>
      <use xlink:href="#DejaVuSerif-47" transform="translate(140.283203 0)"/>
      <use xlink:href="#DejaVuSerif-41" transform="translate(220.166016 0)"/>
      <use xlink:href="#DejaVuSerif-53" transform="translate(292.382812 0)"/>
      <use xlink:href="#DejaVuSerif-49" transform="translate(360.888672 0)"/>
      <use xlink:href="#DejaVuSerif-53" transform="translate(400.390625 0)"/>
     </g>
    </g>
    <g id="line2d_38">
     <path d="M 417.080938 73.737656 
L 426.080938 73.737656 
L 435.080938 73.737656 
" style="fill: none; stroke: #c73e1d; stroke-width: 2; stroke-linecap: square"/>
     <g>
      <use xlink:href="#m4b760c40a2" x="426.080938" y="73.737656" style="fill: #c73e1d; stroke: #c73e1d; stroke-linejoin: miter"/>
     </g>
    </g>
    <g id="text_23">
     <!-- HEED -->
     <g transform="translate(442.280937 76.887656) scale(0.09 -0.09)">
      <defs>
       <path id="DejaVuSerif-44" d="M 1581 331 
L 2163 331 
Q 3072 331 3558 850 
Q 4044 1369 4044 2338 
Q 4044 3306 3559 3818 
Q 3075 4331 2163 4331 
L 1581 4331 
L 1581 331 
z
M 353 0 
L 353 331 
L 947 331 
L 947 4331 
L 353 4331 
L 353 4666 
L 2209 4666 
Q 3416 4666 4089 4050 
Q 4763 3434 4763 2338 
Q 4763 1238 4088 619 
Q 3413 0 2209 0 
L 353 0 
z
" transform="scale(0.015625)"/>
      </defs>
      <use xlink:href="#DejaVuSerif-48"/>
      <use xlink:href="#DejaVuSerif-45" transform="translate(87.207031 0)"/>
      <use xlink:href="#DejaVuSerif-45" transform="translate(160.205078 0)"/>
      <use xlink:href="#DejaVuSerif-44" transform="translate(233.203125 0)"/>
     </g>
    </g>
   </g>
  </g>
 </g>
 <defs>
  <clipPath id="pacd32a0acb">
   <rect x="46.181094" y="22.318125" width="446.4" height="277.2"/>
  </clipPath>
 </defs>
</svg>
